<svg width="32" height="32" viewBox="0 0 32 32" fill="none" xmlns="http://www.w3.org/2000/svg">
<rect width="32" height="32" fill="black"/>
<path d="M3.55531 5.4H9.91131C11.162 5.4 12.198 5.57733 13.0193 5.932C13.8406 6.268 14.4846 6.69733 14.9513 7.22C15.4366 7.724 15.7726 8.27467 15.9593 8.872C16.1646 9.46933 16.2673 10.02 16.2673 10.524C16.2673 11.084 16.174 11.6627 15.9873 12.26C15.8006 12.8387 15.502 13.38 15.0913 13.884C14.6806 14.388 14.1486 14.808 13.4953 15.144C12.8606 15.48 12.0953 15.676 11.1993 15.732V15.844L11.4793 15.984C11.7033 16.096 11.89 16.236 12.0393 16.404C12.2073 16.572 12.4126 16.8427 12.6553 17.216C12.9166 17.5893 13.262 18.1213 13.6913 18.812C14.1206 19.484 14.7273 20.3893 15.5113 21.528C15.7726 21.92 16.0246 22.2747 16.2673 22.592C16.51 22.8907 16.762 23.152 17.0233 23.376C17.2846 23.5813 17.5646 23.74 17.8633 23.852C18.162 23.964 18.5073 24.02 18.8993 24.02C18.9926 24.02 19.086 24.02 19.1793 24.02C19.2726 24.0013 19.366 23.9827 19.4593 23.964V25C19.198 25.1493 18.9366 25.2427 18.6753 25.28C18.414 25.3173 18.078 25.336 17.6673 25.336C17.1073 25.336 16.622 25.2613 16.2113 25.112C15.8193 24.9627 15.4646 24.7667 15.1473 24.524C14.83 24.2627 14.5313 23.9547 14.2513 23.6C13.99 23.2453 13.7193 22.8533 13.4393 22.424L11.2273 19.148C10.8913 18.6253 10.602 18.1867 10.3593 17.832C10.1166 17.4773 9.85531 17.188 9.57531 16.964C9.29531 16.74 8.97798 16.5813 8.62331 16.488C8.28731 16.3947 7.85798 16.348 7.33531 16.348H6.10331V25H3.55531V5.4ZM6.10331 6.632V15.088H8.98731C9.73398 15.088 10.3873 14.9573 10.9473 14.696C11.526 14.4347 12.0113 14.0987 12.4033 13.688C12.7953 13.2587 13.0846 12.792 13.2713 12.288C13.4766 11.7653 13.5793 11.252 13.5793 10.748C13.5793 10.1507 13.4673 9.6 13.2433 9.096C13.038 8.592 12.73 8.16267 12.3193 7.808C11.9086 7.43467 11.414 7.14533 10.8353 6.94C10.2753 6.73467 9.64065 6.632 8.93131 6.632H6.10331ZM24.773 5.4H27.321V25H24.773V5.4Z" fill="white"/>
</svg>
